<svg xmlns="http://www.w3.org/2000/svg" width="40" height="40" viewBox="0 0 40 40">
    <g fill="none" fill-rule="evenodd">
        <rect width="40" height="40" fill="#3D5AFE" fill-rule="nonzero" rx="20"/>
        <path fill="#FFF" d="M20.454 18.766a2.816 2.816 0 0 1 2.703 2.04 2.82 2.82 0 0 1-.696 2.729c.273.096.564.107.84.028.75-.215 1.184-1 .97-1.75l-2.083-7.26c-.215-.748-.999-1.184-1.749-.97-.75.217-1.184 1-.97 1.75l.985 3.433zM24.807 18.564c.215.749 1 1.184 1.75.969a1.416 1.416 0 0 0 .987-1.647l-.01-.056c0-.015-.003-.03-.008-.047l-1.261-4.399c-.215-.749-1-1.184-1.75-.969a1.03 1.03 0 0 1-.08.034 1.402 1.402 0 0 0-.791.7c-.16.321-.193.681-.098 1.016l1.261 4.399zM16.345 19.82l2.719-.78-1.42-4.952a1.409 1.409 0 0 0-.817-.909 1.404 1.404 0 0 0-.933-.061c-.601.172-1.02.734-1.018 1.364 0 .15.016.272.049.386l1.42 4.951zM14.987 20.208l-.952-3.316a1.406 1.406 0 0 0-.62-.81 1.395 1.395 0 0 0-1.043-.174l-.054.01-.007.001a1.417 1.417 0 0 0-.994 1.753l1.057 3.687a2.789 2.789 0 0 1 1.253-.76l1.36-.39z"/>
        <path fill="#FFF" d="M28.198 20.127a2.806 2.806 0 0 1-2.719.78l.149.517a2.83 2.83 0 0 1-1.938 3.496c-.91.261-1.878.044-2.605-.579l-1.842.528.043.148c.792-.112 1.477.013 2.038.373.98.627 1.162 1.74 1.168 1.787a.71.71 0 0 1-.591.805.707.707 0 0 1-.803-.586c0-.002-.104-.547-.543-.822-.362-.227-.888-.245-1.567-.05l-.065.013c-.311.082-.665-.102-.794-.432l-.452-1.573a.702.702 0 0 1 .489-.823l2.664-.764a1.414 1.414 0 0 0 .97-1.75 1.417 1.417 0 0 0-1.75-.97l-6.033 1.73c-.75.215-1.184 1.001-.97 1.75l.44 1.537c.046.16.103.313.159.467l.021.058c1.393 3.813 5.538 5.924 9.438 4.806 4.12-1.182 6.512-5.497 5.33-9.618l-.237-.828z"/>
        <path fill="#000" d="M14.38 10.15a.639.639 0 0 0 1.226-.351l-.467-1.624a.639.639 0 0 0-.787-.438.64.64 0 0 0-.438.789l.466 1.625zM17.965 10.877c.306.17.696.058.866-.249l.819-1.478a.638.638 0 0 0-.248-.867.639.639 0 0 0-.866.25l-.82 1.478a.639.639 0 0 0 .249.866M10.606 11.743l1.478.82a.638.638 0 0 0 .618-1.115l-1.479-.82a.64.64 0 0 0-.867.249.64.64 0 0 0 .25.866M23.105 30.573c-3.9 1.118-8.044-.992-9.437-4.807l-.022-.057a7.671 7.671 0 0 1-.159-.467l-.44-1.537c-.215-.75.22-1.534.97-1.75l6.033-1.73a1.42 1.42 0 0 1 1.75.97 1.416 1.416 0 0 1-.97 1.75l-2.664.764a.702.702 0 0 0-.489.823l.452 1.573c.13.33.482.514.794.432l.066-.013c.677-.194 1.204-.177 1.566.05.44.276.542.82.543.821a.707.707 0 0 0 1.395-.218c-.007-.047-.19-1.16-1.17-1.787-.56-.36-1.245-.485-2.037-.373l-.043-.148 1.842-.529c.727.625 1.694.841 2.605.58a2.83 2.83 0 0 0 1.937-3.496l-.147-.518a2.802 2.802 0 0 0 2.718-.779l.238.829c1.181 4.12-1.21 8.435-5.331 9.617zm-11.789-12.9a1.42 1.42 0 0 1 .995-1.754l.007-.002.054-.009a1.415 1.415 0 0 1 1.663.983l.952 3.317-1.36.39c-.478.137-.908.4-1.253.76l-1.058-3.686zm4.578-4.555a1.4 1.4 0 0 1 .933.062c.402.169.7.5.816.908l1.42 4.952-2.718.78-1.42-4.953a1.367 1.367 0 0 1-.049-.386 1.418 1.418 0 0 1 1.018-1.363zm4.546.466c.749-.215 1.534.22 1.748.97l2.082 7.259c.215.75-.22 1.535-.97 1.75a1.37 1.37 0 0 1-.839-.028 2.82 2.82 0 0 0 .695-2.729 2.816 2.816 0 0 0-2.702-2.04l-.984-3.432c-.215-.75.219-1.534.97-1.75zm3.203-.434c.164-.33.446-.58.792-.701.017-.006.035-.014.08-.034.75-.214 1.535.22 1.75.97l1.261 4.398c.005.017.006.03.009.047l.009.056a1.416 1.416 0 0 1-.987 1.647 1.416 1.416 0 0 1-1.75-.97l-1.261-4.397a1.417 1.417 0 0 1 .097-1.016zm5.336 4.576a2.44 2.44 0 0 0-.044-.131.795.795 0 0 1-.051-.2l-1.262-4.4a2.828 2.828 0 0 0-3.495-1.936c-.389.112-.747.307-1.065.584a2.81 2.81 0 0 0-.703.938 2.83 2.83 0 0 0-2.002-.41l-.083.013c-.074.01-.15.022-.223.043a2.782 2.782 0 0 0-1.326.846 2.823 2.823 0 0 0-1.892-1.355 2.785 2.785 0 0 0-1.328.043 2.812 2.812 0 0 0-1.986 2.186c-.04.21-.057.423-.05.633a2.78 2.78 0 0 0-1.57-.014 2.829 2.829 0 0 0-1.94 3.495l2.172 7.57c1.396 4.87 6.494 7.696 11.364 6.3 4.869-1.397 7.695-6.495 6.298-11.365l-.814-2.84z"/>
    </g>
</svg>
