<svg xmlns="http://www.w3.org/2000/svg" width="40" height="40" viewBox="0 0 40 40">
    <g fill="none" fill-rule="evenodd">
        <rect width="40" height="40" fill="#FFF200" fill-rule="nonzero" rx="20"/>
        <path fill="#FFF" d="M20.454 18.766a2.817 2.817 0 0 1 2.703 2.04 2.823 2.823 0 0 1-.696 2.729c.273.096.564.107.84.028.748-.215 1.184-1 .97-1.75l-2.082-7.26c-.215-.748-1-1.184-1.75-.97-.75.217-1.184 1-.97 1.75l.985 3.433zM24.808 18.564c.215.749.999 1.184 1.749.969a1.417 1.417 0 0 0 .987-1.647l-.01-.056a.246.246 0 0 0-.007-.047l-1.262-4.399c-.215-.749-1-1.184-1.75-.969-.046.02-.063.028-.08.034a1.399 1.399 0 0 0-.79.7c-.16.321-.195.681-.1 1.016l1.262 4.399zM16.344 19.82l2.72-.78-1.42-4.952a1.41 1.41 0 0 0-.817-.909 1.402 1.402 0 0 0-.933-.061c-.6.172-1.02.734-1.018 1.364 0 .15.016.272.048.386l1.42 4.951zM14.987 20.208l-.951-3.316a1.406 1.406 0 0 0-.621-.81 1.396 1.396 0 0 0-1.043-.174l-.054.01-.006.001a1.416 1.416 0 0 0-.995 1.753l1.057 3.687a2.785 2.785 0 0 1 1.253-.76l1.36-.39z"/>
        <path fill="#FFF" d="M28.199 20.127a2.806 2.806 0 0 1-2.72.78l.149.517a2.829 2.829 0 0 1-1.939 3.496c-.91.261-1.877.044-2.604-.579l-1.842.528.043.148c.792-.112 1.477.013 2.038.373.98.627 1.162 1.74 1.168 1.787a.706.706 0 0 1-1.394.22c-.001-.003-.104-.547-.543-.823-.361-.227-.889-.245-1.566-.05l-.066.013c-.311.082-.665-.102-.793-.432l-.452-1.573a.702.702 0 0 1 .488-.823l2.663-.764a1.417 1.417 0 0 0 .97-1.75 1.418 1.418 0 0 0-1.749-.97l-6.034 1.73c-.749.215-1.184 1.001-.969 1.75l.44 1.537c.046.16.103.313.16.467l.02.058c1.393 3.813 5.538 5.924 9.438 4.806 4.121-1.182 6.513-5.497 5.331-9.618l-.237-.828z"/>
        <path fill="#000" d="M14.38 10.15a.638.638 0 0 0 1.225-.351l-.466-1.624a.64.64 0 0 0-.788-.438.64.64 0 0 0-.437.789l.466 1.625zM17.964 10.877a.64.64 0 0 0 .867-.249l.82-1.478a.64.64 0 0 0-.248-.867.639.639 0 0 0-.867.25l-.82 1.478a.639.639 0 0 0 .248.866M10.605 11.743l1.478.82a.639.639 0 0 0 .62-1.114l-1.48-.82a.64.64 0 0 0-.866.248.64.64 0 0 0 .248.866M23.105 30.573c-3.9 1.118-8.045-.992-9.437-4.807l-.022-.057c-.056-.154-.113-.308-.158-.467l-.44-1.537c-.216-.75.219-1.534.969-1.75l6.033-1.73a1.42 1.42 0 0 1 1.75.97 1.418 1.418 0 0 1-.97 1.75l-2.664.764a.702.702 0 0 0-.488.823l.451 1.573c.13.33.483.514.794.432l.066-.013c.677-.194 1.204-.177 1.565.05.44.276.543.82.544.821.06.383.421.646.803.587a.71.71 0 0 0 .592-.805c-.007-.047-.19-1.16-1.17-1.787-.56-.36-1.245-.485-2.037-.373l-.043-.148 1.842-.529c.727.625 1.693.841 2.604.58a2.83 2.83 0 0 0 1.939-3.496l-.148-.518a2.803 2.803 0 0 0 2.718-.779l.238.829c1.182 4.12-1.21 8.435-5.33 9.617zm-11.788-12.9a1.418 1.418 0 0 1 .995-1.754l.006-.002.055-.009a1.415 1.415 0 0 1 1.663.983l.952 3.317-1.36.39c-.48.137-.909.4-1.254.76l-1.057-3.686zm4.577-4.555c.305-.088.629-.066.933.062.401.169.7.5.816.908l1.42 4.952-2.719.78-1.42-4.953a1.4 1.4 0 0 1-.047-.386 1.418 1.418 0 0 1 1.017-1.363zm4.545.466c.75-.215 1.535.22 1.75.97l2.081 7.259c.215.75-.22 1.535-.97 1.75-.275.08-.566.068-.838-.028a2.822 2.822 0 0 0 .695-2.729 2.816 2.816 0 0 0-2.704-2.04l-.983-3.432c-.216-.75.22-1.534.97-1.75zm3.204-.434a1.4 1.4 0 0 1 .792-.701c.018-.006.034-.014.08-.034.75-.214 1.535.22 1.75.97l1.262 4.398a.32.32 0 0 1 .007.047l.01.056a1.418 1.418 0 0 1-.987 1.647 1.416 1.416 0 0 1-1.75-.97l-1.261-4.397a1.412 1.412 0 0 1 .097-1.016zm5.336 4.576a1.886 1.886 0 0 0-.045-.131c-.01-.03-.021-.06-.034-.117a.77.77 0 0 0-.016-.083l-1.261-4.4a2.83 2.83 0 0 0-3.496-1.936 2.821 2.821 0 0 0-1.768 1.523 2.82 2.82 0 0 0-2.001-.412l-.084.014c-.075.01-.149.022-.224.043a2.78 2.78 0 0 0-1.325.846 2.827 2.827 0 0 0-1.892-1.355 2.788 2.788 0 0 0-1.329.043 2.81 2.81 0 0 0-1.985 2.186c-.04.21-.056.423-.05.633a2.784 2.784 0 0 0-1.572-.014A2.828 2.828 0 0 0 9.96 18.06l2.17 7.57c1.397 4.87 6.494 7.696 11.364 6.3 4.87-1.397 7.695-6.495 6.299-11.365l-.814-2.84z"/>
    </g>
</svg>
