<svg xmlns="http://www.w3.org/2000/svg" xmlns:xlink="http://www.w3.org/1999/xlink" width="128" height="31" viewBox="0 0 128 31">
    <defs>
        <path id="a" d="M.327.4h10.426v15.53H.327z"/>
        <path id="c" d="M0 .076h25.614V27H0z"/>
    </defs>
    <g fill="none" fill-rule="evenodd">
        <path fill="#FFF" d="M42.972 15.278c0-.632-.178-1.095-.534-1.39-.357-.297-.84-.445-1.453-.445-.409 0-.809.052-1.207.153a3.054 3.054 0 0 0-1.024.46v10.608a7.012 7.012 0 0 1-.964.182 9.546 9.546 0 0 1-1.36.092c-.448 0-.852-.029-1.207-.092a2.041 2.041 0 0 1-.903-.366 1.765 1.765 0 0 1-.566-.749c-.133-.314-.199-.727-.199-1.238v-9.17c0-.553.118-1 .354-1.347.233-.347.554-.662.96-.947.694-.49 1.566-.888 2.616-1.193 1.05-.307 2.216-.459 3.5-.459 2.303 0 4.076.505 5.32 1.513 1.243 1.01 1.866 2.411 1.866 4.204v9.57a7.012 7.012 0 0 1-.964.182 9.57 9.57 0 0 1-1.36.092c-.448 0-.852-.029-1.208-.092a2.037 2.037 0 0 1-.902-.366 1.765 1.765 0 0 1-.566-.749c-.134-.314-.199-.727-.199-1.238v-7.215zM56.057 17.266c0 1.243.238 2.196.72 2.858.476.663 1.144.995 2.001.995.855 0 1.514-.337 1.972-1.01.458-.673.689-1.62.689-2.843 0-1.223-.236-2.166-.704-2.828-.469-.662-1.131-.994-1.988-.994-.855 0-1.517.332-1.986.994-.471.662-.704 1.605-.704 2.828m10.701 0c0 1.264-.195 2.39-.581 3.379-.387.987-.933 1.817-1.636 2.49a6.949 6.949 0 0 1-2.523 1.529c-.977.348-2.068.52-3.271.52-1.203 0-2.293-.183-3.271-.55a7.178 7.178 0 0 1-2.522-1.575c-.704-.683-1.249-1.513-1.635-2.492-.388-.977-.581-2.078-.581-3.301 0-1.202.193-2.294.581-3.271.386-.98.931-1.81 1.635-2.492a7.176 7.176 0 0 1 2.522-1.575c.978-.367 2.068-.551 3.271-.551 1.203 0 2.294.189 3.271.567a7.398 7.398 0 0 1 2.523 1.589 7.021 7.021 0 0 1 1.636 2.492c.386.978.581 2.059.581 3.24M77.673 13.475c-.51 0-.993.08-1.453.243a3.382 3.382 0 0 0-1.192.72 3.494 3.494 0 0 0-.809 1.176c-.204.47-.306 1.02-.306 1.652 0 1.264.362 2.212 1.084 2.843.725.633 1.605.947 2.647.947.61 0 1.14-.07 1.59-.212a9.63 9.63 0 0 0 1.19-.46c.408.287.715.597.92.934.201.335.303.738.303 1.207 0 .835-.396 1.482-1.192 1.94-.796.46-1.895.689-3.302.689-1.284 0-2.446-.19-3.486-.566-1.039-.377-1.93-.906-2.675-1.59a6.993 6.993 0 0 1-1.726-2.461c-.408-.958-.613-2.017-.613-3.18 0-1.345.22-2.522.658-3.531.437-1.008 1.034-1.838 1.788-2.493a7.6 7.6 0 0 1 2.615-1.465 9.931 9.931 0 0 1 3.134-.491c1.467 0 2.6.265 3.393.796.795.53 1.193 1.212 1.193 2.048 0 .388-.09.749-.275 1.086a3.834 3.834 0 0 1-.643.872 9.648 9.648 0 0 0-1.254-.475 5.288 5.288 0 0 0-1.589-.23M98.77 22.004c-.104.958-.382 1.693-.842 2.2-.46.512-1.126.766-2.003.766-.652 0-1.233-.157-1.741-.474-.511-.314-1.06-.85-1.652-1.605l-3.027-3.79v5.563c-.224.04-.554.097-.994.169-.437.07-.88.106-1.33.106-.447 0-.85-.03-1.207-.092a2.057 2.057 0 0 1-.901-.366 1.761 1.761 0 0 1-.566-.75c-.133-.314-.198-.727-.198-1.238V4.79c.223-.06.555-.126.992-.2.438-.07.882-.107 1.33-.107.449 0 .85.032 1.209.094.357.06.658.184.902.367.243.183.43.432.565.748.133.317.198.729.198 1.239v8.07l5.26-5.381c1.059 0 1.91.236 2.553.704.64.469.963 1.06.963 1.773 0 .306-.052.586-.155.843a3.034 3.034 0 0 1-.473.777 6.91 6.91 0 0 1-.825.843c-.335.296-.73.636-1.178 1.023l-1.773 1.529 4.893 4.89zM107.545 13.168c-.489 0-.913.082-1.27.246a2.576 2.576 0 0 0-.872.626 2.604 2.604 0 0 0-.504.856 3.567 3.567 0 0 0-.198.963l5.23-.856c-.064-.408-.288-.814-.674-1.223-.388-.408-.958-.612-1.712-.612m.855 12.017c-1.203 0-2.318-.168-3.347-.505a7.592 7.592 0 0 1-2.692-1.514c-.763-.673-1.366-1.519-1.803-2.537-.438-1.019-.658-2.212-.658-3.578 0-1.344.22-2.501.658-3.469.437-.969 1.013-1.763 1.727-2.386a6.941 6.941 0 0 1 2.447-1.376 9.163 9.163 0 0 1 2.813-.443c1.08 0 2.063.165 2.95.49a7.113 7.113 0 0 1 2.293 1.345 6.014 6.014 0 0 1 1.498 2.048c.357.796.534 1.662.534 2.599 0 .694-.193 1.223-.58 1.589-.388.367-.927.603-1.62.704l-7.552 1.131c.223.673.682 1.178 1.375 1.514.694.335 1.488.505 2.385.505.835 0 1.626-.108 2.37-.322.743-.214 1.35-.463 1.82-.749.326.205.6.49.824.856.224.367.337.754.337 1.162 0 .917-.429 1.601-1.285 2.048a6.782 6.782 0 0 1-2.2.704 15.71 15.71 0 0 1-2.294.184"/>
        <g transform="translate(117 9.008)">
            <mask id="b" fill="#fff">
                <use xlink:href="#a"/>
            </mask>
            <path fill="#FFF" d="M5.526 15.656c-.204.062-.526.122-.964.183a9.721 9.721 0 0 1-1.361.091c-.447 0-.851-.029-1.207-.09a2.054 2.054 0 0 1-.903-.368 1.763 1.763 0 0 1-.565-.749c-.134-.314-.2-.727-.2-1.238v-9.17c0-.47.088-.873.263-1.21.172-.336.42-.637.748-.9a5.357 5.357 0 0 1 1.208-.72A13.11 13.11 0 0 1 5.8.537 11.5 11.5 0 0 1 7.573.4c.979 0 1.754.19 2.324.566.569.377.857.993.857 1.85 0 .285-.041.565-.124.84a3.753 3.753 0 0 1-.305.75c-.428 0-.866.021-1.315.061-.448.041-.886.101-1.314.182a24.01 24.01 0 0 0-1.207.26 5.308 5.308 0 0 0-.963.321v10.426z" mask="url(#b)"/>
        </g>
        <path fill="#FFF" d="M5.716 3.076a.808.808 0 0 0 .995.552.807.807 0 0 0 .551-.995L6.674.583A.806.806 0 0 0 5.68.03a.806.806 0 0 0-.552.994l.588 2.051zM10.239 3.992a.809.809 0 0 0 1.094-.313l1.034-1.867A.805.805 0 0 0 12.053.72a.806.806 0 0 0-1.093.313L9.926 2.898a.808.808 0 0 0 .313 1.094M.954 5.086L2.817 6.12a.809.809 0 0 0 1.095-.313.808.808 0 0 0-.313-1.094L1.731 3.679a.806.806 0 0 0-1.092.313.807.807 0 0 0 .314 1.094"/>
        <g transform="translate(0 4.008)">
            <mask id="d" fill="#fff">
                <use xlink:href="#c"/>
            </mask>
            <path fill="#FFF" d="M16.725 24.837c-4.92 1.41-10.15-1.253-11.907-6.064L4.79 18.7c-.071-.194-.142-.387-.2-.589l-.555-1.939a1.787 1.787 0 0 1 1.223-2.208l7.613-2.183c.227-.065.461-.084.727-.05a1.787 1.787 0 0 1 1.481 1.275 1.786 1.786 0 0 1-.581 1.864 1.773 1.773 0 0 1-.643.343l-3.362.964c-.439.126-.705.564-.616 1.038l.57 1.985c.163.416.609.65 1.002.545l.083-.016c.854-.245 1.519-.224 1.975.062.555.35.685 1.035.686 1.038a.89.89 0 0 0 1.76-.276c-.009-.06-.239-1.464-1.475-2.256-.708-.453-1.572-.61-2.572-.469l-.054-.187 2.325-.667a3.528 3.528 0 0 0 3.286.731 3.57 3.57 0 0 0 2.446-4.41l-.188-.653a3.54 3.54 0 0 0 3.431-.985l.3 1.046c1.491 5.2-1.527 10.644-6.727 12.135zM1.851 8.558c-.271-.943.275-1.93 1.255-2.21l.009-.004.068-.01a1.768 1.768 0 0 1 1.315.22c.384.235.663.598.784 1.02l1.2 4.185-1.715.492a3.532 3.532 0 0 0-1.582.96L1.851 8.557zm5.775-5.745a1.756 1.756 0 0 1 1.178.078c.507.213.882.631 1.029 1.145l1.792 6.248-3.43.985L6.403 5.02a1.694 1.694 0 0 1-.06-.487 1.785 1.785 0 0 1 1.283-1.72zm5.736.587a1.789 1.789 0 0 1 2.207 1.224l2.627 9.16a1.788 1.788 0 0 1-1.224 2.207c-.348.1-.715.086-1.059-.036a3.556 3.556 0 0 0 .877-3.44 3.549 3.549 0 0 0-3.41-2.575l-1.242-4.332A1.787 1.787 0 0 1 13.362 3.4zm4.043-.547c.206-.416.561-.73.998-.884a5 5 0 0 0 .102-.043 1.784 1.784 0 0 1 2.207 1.224l1.592 5.55c.006.02.008.038.011.058l.012.07a1.789 1.789 0 0 1-1.247 2.078 1.786 1.786 0 0 1-2.207-1.222l-1.591-5.55a1.77 1.77 0 0 1 .123-1.28zm6.732 5.774a1.91 1.91 0 0 0-.057-.166c-.013-.038-.027-.075-.043-.146a.67.67 0 0 0-.02-.107l-1.592-5.55A3.57 3.57 0 0 0 18.014.214c-.49.141-.941.39-1.343.737a3.542 3.542 0 0 0-.887 1.184 3.54 3.54 0 0 0-2.526-.518l-.105.016c-.094.015-.188.03-.282.056a3.484 3.484 0 0 0-1.672 1.066 3.589 3.589 0 0 0-2.388-1.709 3.503 3.503 0 0 0-1.676.054A3.548 3.548 0 0 0 4.63 3.858a3.587 3.587 0 0 0-.063.798 3.51 3.51 0 0 0-1.983-.017A3.57 3.57 0 0 0 .138 9.05l2.739 9.553c1.763 6.144 8.195 9.71 14.339 7.948 6.145-1.763 9.71-8.194 7.948-14.339l-1.027-3.584z" mask="url(#d)"/>
        </g>
    </g>
</svg>
